<?xml version="1.0" encoding="UTF-8" standalone="no"?>
<!DOCTYPE svg PUBLIC "-//W3C//DTD SVG 1.1//EN" "http://www.w3.org/Graphics/SVG/1.1/DTD/svg11.dtd">
<svg width="100%" height="100%" viewBox="0 0 3074 1752" version="1.1" xmlns="http://www.w3.org/2000/svg" xmlns:xlink="http://www.w3.org/1999/xlink" xml:space="preserve" xmlns:serif="http://www.serif.com/" style="fill-rule:evenodd;clip-rule:evenodd;stroke-linejoin:round;stroke-miterlimit:2;">
    <g transform="matrix(1,0,0,1,-51563,-1063.08)">
        <g transform="matrix(4.16667,0,0,4.16667,36274.6,0)">
            <g transform="matrix(-68.7541,734.446,734.446,68.7541,4046.24,273.331)">
                <path d="M0.026,-0.511C0.028,-0.508 0.032,-0.506 0.033,-0.503C0.052,-0.447 0.07,-0.391 0.087,-0.335C0.113,-0.251 0.137,-0.166 0.162,-0.082C0.163,-0.076 0.165,-0.074 0.171,-0.074C0.185,-0.075 0.198,-0.076 0.211,-0.077C0.222,-0.078 0.223,-0.08 0.222,-0.091C0.22,-0.108 0.22,-0.108 0.237,-0.109C0.238,-0.109 0.239,-0.109 0.239,-0.109C0.249,-0.108 0.253,-0.113 0.255,-0.123C0.261,-0.147 0.27,-0.17 0.285,-0.19C0.288,-0.194 0.29,-0.198 0.291,-0.202C0.296,-0.233 0.313,-0.256 0.338,-0.273C0.355,-0.286 0.372,-0.299 0.379,-0.32C0.38,-0.323 0.382,-0.325 0.384,-0.328C0.4,-0.349 0.425,-0.351 0.444,-0.333C0.457,-0.322 0.465,-0.308 0.469,-0.292C0.474,-0.27 0.48,-0.248 0.485,-0.226C0.487,-0.22 0.489,-0.216 0.496,-0.218C0.503,-0.22 0.511,-0.223 0.518,-0.226C0.52,-0.227 0.523,-0.232 0.522,-0.234C0.52,-0.243 0.517,-0.251 0.514,-0.26C0.513,-0.264 0.511,-0.268 0.509,-0.271C0.514,-0.271 0.52,-0.273 0.524,-0.271C0.529,-0.268 0.533,-0.263 0.535,-0.259C0.538,-0.254 0.538,-0.248 0.539,-0.243C0.543,-0.213 0.546,-0.184 0.549,-0.154C0.551,-0.131 0.554,-0.109 0.555,-0.086C0.556,-0.082 0.552,-0.078 0.55,-0.074C0.546,-0.075 0.543,-0.077 0.54,-0.079C0.539,-0.08 0.538,-0.081 0.536,-0.083C0.537,-0.078 0.537,-0.075 0.537,-0.072C0.539,-0.05 0.54,-0.028 0.541,-0.006C0.541,-0.003 0.537,0.001 0.535,0.004C0.533,0.002 0.529,-0 0.528,-0.003C0.525,-0.009 0.523,-0.011 0.517,-0.009C0.514,-0.009 0.511,-0.008 0.507,-0.008C0.502,-0.008 0.499,-0.005 0.498,0.001C0.496,0.01 0.493,0.02 0.491,0.03C0.485,0.057 0.471,0.078 0.446,0.091C0.435,0.097 0.424,0.103 0.413,0.11C0.41,0.113 0.406,0.118 0.406,0.123C0.404,0.132 0.405,0.14 0.405,0.149C0.401,0.232 0.398,0.315 0.394,0.398C0.394,0.41 0.394,0.411 0.406,0.413C0.427,0.418 0.448,0.423 0.469,0.427C0.493,0.432 0.493,0.432 0.494,0.457C0.495,0.467 0.494,0.467 0.484,0.467C0.456,0.465 0.428,0.463 0.4,0.461C0.391,0.46 0.387,0.463 0.384,0.471C0.38,0.482 0.37,0.483 0.363,0.474C0.362,0.473 0.361,0.472 0.36,0.471C0.358,0.465 0.354,0.464 0.348,0.466C0.32,0.476 0.291,0.485 0.263,0.495C0.247,0.5 0.23,0.505 0.213,0.511C0.212,0.506 0.211,0.503 0.211,0.499C0.209,0.483 0.209,0.483 0.224,0.476C0.262,0.457 0.3,0.438 0.338,0.42C0.347,0.416 0.35,0.41 0.35,0.401C0.345,0.34 0.34,0.279 0.335,0.218C0.333,0.189 0.327,0.16 0.311,0.134C0.296,0.108 0.28,0.083 0.263,0.059C0.257,0.05 0.253,0.04 0.252,0.029C0.252,0.015 0.251,0.002 0.25,-0.012C0.249,-0.016 0.246,-0.023 0.243,-0.024C0.229,-0.027 0.227,-0.036 0.227,-0.048C0.227,-0.05 0.226,-0.053 0.226,-0.055C0.225,-0.067 0.224,-0.068 0.211,-0.067C0.202,-0.066 0.192,-0.065 0.183,-0.064C0.168,-0.063 0.167,-0.062 0.168,-0.048C0.172,0.003 0.176,0.054 0.181,0.104C0.189,0.182 0.195,0.26 0.195,0.338C0.195,0.351 0.195,0.365 0.195,0.378C0.195,0.38 0.193,0.383 0.192,0.385C0.19,0.384 0.187,0.383 0.186,0.381C0.183,0.376 0.18,0.371 0.178,0.365C0.176,0.356 0.175,0.346 0.174,0.337C0.16,0.228 0.154,0.118 0.146,0.009C0.144,-0.028 0.142,-0.066 0.131,-0.101C0.126,-0.117 0.121,-0.134 0.116,-0.15C0.097,-0.216 0.077,-0.282 0.059,-0.349C0.046,-0.399 0.034,-0.449 0.022,-0.5C0.022,-0.5 0.022,-0.501 0.022,-0.501C0.022,-0.504 0.025,-0.508 0.026,-0.511ZM0.526,-0.214C0.514,-0.21 0.504,-0.208 0.493,-0.204C0.491,-0.203 0.489,-0.2 0.489,-0.198C0.491,-0.183 0.492,-0.169 0.494,-0.154C0.495,-0.149 0.496,-0.143 0.503,-0.144C0.51,-0.146 0.512,-0.15 0.512,-0.156C0.511,-0.167 0.509,-0.177 0.502,-0.185C0.501,-0.186 0.5,-0.187 0.5,-0.188C0.5,-0.189 0.5,-0.189 0.5,-0.19C0.509,-0.194 0.519,-0.191 0.523,-0.18C0.526,-0.171 0.527,-0.161 0.529,-0.151C0.53,-0.139 0.53,-0.128 0.531,-0.116C0.532,-0.113 0.533,-0.11 0.534,-0.107C0.537,-0.142 0.529,-0.177 0.526,-0.214ZM0.517,-0.107C0.516,-0.114 0.516,-0.121 0.514,-0.128C0.514,-0.131 0.51,-0.135 0.509,-0.135C0.505,-0.134 0.497,-0.135 0.497,-0.128C0.497,-0.119 0.498,-0.109 0.5,-0.1C0.5,-0.098 0.503,-0.096 0.504,-0.095C0.513,-0.094 0.516,-0.096 0.517,-0.101C0.517,-0.103 0.517,-0.105 0.517,-0.107ZM0.525,-0.03C0.523,-0.046 0.522,-0.063 0.52,-0.079C0.519,-0.085 0.516,-0.086 0.511,-0.085C0.506,-0.084 0.501,-0.085 0.501,-0.077C0.502,-0.06 0.502,-0.043 0.502,-0.027C0.502,-0.021 0.503,-0.019 0.508,-0.02C0.511,-0.02 0.514,-0.02 0.516,-0.02C0.521,-0.02 0.525,-0.022 0.525,-0.027C0.525,-0.028 0.525,-0.029 0.525,-0.03Z" style="fill:url(#_Linear1);fill-rule:nonzero;"/>
            </g>
        </g>
    </g>
    <defs>
        <linearGradient id="_Linear1" x1="0" y1="0" x2="1" y2="0" gradientUnits="userSpaceOnUse" gradientTransform="matrix(1,0,0,-1,0,1.08682e-06)"><stop offset="0" style="stop-color:rgb(194,221,245);stop-opacity:1"/><stop offset="0.02" style="stop-color:rgb(194,221,245);stop-opacity:1"/><stop offset="0.47" style="stop-color:rgb(49,169,225);stop-opacity:1"/><stop offset="1" style="stop-color:rgb(20,112,184);stop-opacity:1"/></linearGradient>
    </defs>
</svg>
